# xmcd
#
# Track frame offsets:
#	150
#	1164
#	22839
#	39694
#	57017
#	74509
#	92719
#	113559
#	131842
#	146977
#	161947
#	175594
#	189260
#	203197
#	215619
#	229097
#	244347
#
# Disc length: 3440 seconds
#
# Revision: 1
# Processed by: cddbd v1.5.1PL0 Copyright (c) Steve Scherf et al.
# Submitted via: MusicWizard 7.1.1b
#
DISCID=ef0d6e11
DTITLE=Various Artist - Promised Land, The
DYEAR=1995
DGENRE=Blues
TTITLE0=Morgan Freeman - The South
TTITLE1=Terence Trent D'Arby - A Change is gonna come
TTITLE2=Tramine Hawkins - Movin' on
TTITLE3=Dionne Farris - I wish I knew how it would feel to be free
TTITLE4=Asante - People get ready
TTITLE5=Chuck D and Dapper Dan - Ball of Confusion
TTITLE6=Puff Johnson - Someda we all be free
TTITLE7=Terence Blanchard - The promised Land
TTITLE8=Blind Willy Johnson - Dark was the Night cold was the Ground
TTITLE9=Bessie Smith - Backwater Blues
TTITLE10=Robert Johnson - Sweet Homw Chicago
TTITLE11=Louis Armstrong - Black and Blue
TTITLE12=Duke Ellington - East St. Louis Toodle
TTITLE13=Count Basie - Stampede in G Minor
TTITLE14=Billy Holiday - God bless the Child
TTITLE15=Mahalia Jackson - I'm on my way
TTITLE16=Terence Blanchard - Closing Theme
EXTD=
EXTT0=
EXTT1=
EXTT2=
EXTT3=
EXTT4=
EXTT5=
EXTT6=
EXTT7=
EXTT8=
EXTT9=
EXTT10=
EXTT11=
EXTT12=
EXTT13=
EXTT14=
EXTT15=
EXTT16=
PLAYORDER=
